<svg width="239" height="47" viewBox="0 0 239 47" fill="none" xmlns="http://www.w3.org/2000/svg">
<path d="M56.252 29.7441C56.252 29.123 55.9414 28.6367 55.3203 28.2852C54.7109 27.9219 53.7266 27.5996 52.3672 27.3184C47.8438 26.3691 45.582 24.4473 45.582 21.5527C45.582 19.8652 46.2793 18.459 47.6738 17.334C49.0801 16.1973 50.9141 15.6289 53.1758 15.6289C55.5898 15.6289 57.5176 16.1973 58.959 17.334C60.4121 18.4707 61.1387 19.9473 61.1387 21.7637H56.0586C56.0586 21.0371 55.8242 20.4395 55.3555 19.9707C54.8867 19.4902 54.1543 19.25 53.1582 19.25C52.3027 19.25 51.6406 19.4434 51.1719 19.8301C50.7031 20.2168 50.4688 20.709 50.4688 21.3066C50.4688 21.8691 50.7324 22.3262 51.2598 22.6777C51.7988 23.0176 52.7012 23.3164 53.9668 23.5742C55.2324 23.8203 56.2988 24.1016 57.166 24.418C59.8496 25.4023 61.1914 27.1074 61.1914 29.5332C61.1914 31.2676 60.4473 32.6738 58.959 33.752C57.4707 34.8184 55.5488 35.3516 53.1934 35.3516C51.5996 35.3516 50.1816 35.0703 48.9395 34.5078C47.709 33.9336 46.7422 33.1543 46.0391 32.1699C45.3359 31.1738 44.9844 30.1016 44.9844 28.9531H49.8008C49.8477 29.8555 50.1816 30.5469 50.8027 31.0273C51.4238 31.5078 52.2559 31.748 53.2988 31.748C54.2715 31.748 55.0039 31.5664 55.4961 31.2031C56 30.8281 56.252 30.3418 56.252 29.7441ZM70.5605 11.3047V15.9805H73.8125V19.707H70.5605V29.1992C70.5605 29.9023 70.6953 30.4062 70.9648 30.7109C71.2344 31.0156 71.75 31.168 72.5117 31.168C73.0742 31.168 73.5723 31.127 74.0059 31.0449V34.8945C73.0098 35.1992 71.9844 35.3516 70.9297 35.3516C67.3672 35.3516 65.5508 33.5527 65.4805 29.9551V19.707H62.7031V15.9805H65.4805V11.3047H70.5605ZM87.3301 20.7441C86.6387 20.6504 86.0293 20.6035 85.502 20.6035C83.5801 20.6035 82.3203 21.2539 81.7227 22.5547V35H76.6426V15.9805H81.4414L81.582 18.248C82.6016 16.502 84.0137 15.6289 85.8184 15.6289C86.3809 15.6289 86.9082 15.7051 87.4004 15.8574L87.3301 20.7441ZM98.1934 35.3516C95.4043 35.3516 93.1309 34.4961 91.373 32.7852C89.627 31.0742 88.7539 28.7949 88.7539 25.9473V25.4551C88.7539 23.5449 89.123 21.8398 89.8613 20.3398C90.5996 18.8281 91.6426 17.668 92.9902 16.8594C94.3496 16.0391 95.8965 15.6289 97.6309 15.6289C100.232 15.6289 102.277 16.4492 103.766 18.0898C105.266 19.7305 106.016 22.0566 106.016 25.0684V27.1426H93.9043C94.0684 28.3848 94.5605 29.3809 95.3809 30.1309C96.2129 30.8809 97.2617 31.2559 98.5273 31.2559C100.484 31.2559 102.014 30.5469 103.115 29.1289L105.611 31.9238C104.85 33.002 103.818 33.8457 102.518 34.4551C101.217 35.0527 99.7754 35.3516 98.1934 35.3516ZM97.6133 19.7422C96.6055 19.7422 95.7852 20.082 95.1523 20.7617C94.5312 21.4414 94.1328 22.4141 93.957 23.6797H101.023V23.2754C101 22.1504 100.695 21.2832 100.109 20.6738C99.5234 20.0527 98.6914 19.7422 97.6133 19.7422ZM119.938 35C119.703 34.543 119.533 33.9746 119.428 33.2949C118.197 34.666 116.598 35.3516 114.629 35.3516C112.766 35.3516 111.219 34.8125 109.988 33.7344C108.77 32.6562 108.16 31.2969 108.16 29.6562C108.16 27.6406 108.904 26.0938 110.393 25.0156C111.893 23.9375 114.055 23.3926 116.879 23.3809H119.217V22.291C119.217 21.4121 118.988 20.709 118.531 20.1816C118.086 19.6543 117.377 19.3906 116.404 19.3906C115.549 19.3906 114.875 19.5957 114.383 20.0059C113.902 20.416 113.662 20.9785 113.662 21.6934H108.582C108.582 20.5918 108.922 19.5723 109.602 18.6348C110.281 17.6973 111.242 16.9648 112.484 16.4375C113.727 15.8984 115.121 15.6289 116.668 15.6289C119.012 15.6289 120.869 16.2207 122.24 17.4043C123.623 18.5762 124.314 20.2285 124.314 22.3613V30.6055C124.326 32.4102 124.578 33.7754 125.07 34.7012V35H119.938ZM115.736 31.4668C116.486 31.4668 117.178 31.3027 117.811 30.9746C118.443 30.6348 118.912 30.1836 119.217 29.6211V26.3516H117.318C114.775 26.3516 113.422 27.2305 113.258 28.9883L113.24 29.2871C113.24 29.9199 113.463 30.4414 113.908 30.8516C114.354 31.2617 114.963 31.4668 115.736 31.4668ZM132.98 15.9805L133.139 18.1074C134.486 16.4551 136.309 15.6289 138.605 15.6289C141.055 15.6289 142.736 16.5957 143.65 18.5293C144.986 16.5957 146.891 15.6289 149.363 15.6289C151.426 15.6289 152.961 16.2324 153.969 17.4395C154.977 18.6348 155.48 20.4395 155.48 22.8535V35H150.383V22.8711C150.383 21.793 150.172 21.0078 149.75 20.5156C149.328 20.0117 148.584 19.7598 147.518 19.7598C145.994 19.7598 144.939 20.4863 144.354 21.9395L144.371 35H139.291V22.8887C139.291 21.7871 139.074 20.9902 138.641 20.498C138.207 20.0059 137.469 19.7598 136.426 19.7598C134.984 19.7598 133.941 20.3574 133.297 21.5527V35H128.217V15.9805H132.98ZM176.521 25.666C176.521 28.5957 175.854 30.9453 174.518 32.7148C173.193 34.4727 171.4 35.3516 169.139 35.3516C167.217 35.3516 165.664 34.6836 164.48 33.3477V42.3125H159.4V15.9805H164.111L164.287 17.8438C165.518 16.3672 167.123 15.6289 169.104 15.6289C171.447 15.6289 173.27 16.4961 174.57 18.2305C175.871 19.9648 176.521 22.3555 176.521 25.4023V25.666ZM171.441 25.2969C171.441 23.5273 171.125 22.1621 170.492 21.2012C169.871 20.2402 168.963 19.7598 167.768 19.7598C166.174 19.7598 165.078 20.3691 164.48 21.5879V29.375C165.102 30.6289 166.209 31.2559 167.803 31.2559C170.229 31.2559 171.441 29.2695 171.441 25.2969ZM178.895 25.3145C178.895 23.4277 179.258 21.7461 179.984 20.2695C180.711 18.793 181.754 17.6504 183.113 16.8418C184.484 16.0332 186.072 15.6289 187.877 15.6289C190.443 15.6289 192.535 16.4141 194.152 17.9844C195.781 19.5547 196.689 21.6875 196.877 24.3828L196.912 25.6836C196.912 28.6016 196.098 30.9453 194.469 32.7148C192.84 34.4727 190.654 35.3516 187.912 35.3516C185.17 35.3516 182.979 34.4727 181.338 32.7148C179.709 30.957 178.895 28.5664 178.895 25.543V25.3145ZM183.975 25.6836C183.975 27.4883 184.314 28.8711 184.994 29.832C185.674 30.7812 186.646 31.2559 187.912 31.2559C189.143 31.2559 190.104 30.7871 190.795 29.8496C191.486 28.9004 191.832 27.3887 191.832 25.3145C191.832 23.5449 191.486 22.1738 190.795 21.2012C190.104 20.2285 189.131 19.7422 187.877 19.7422C186.635 19.7422 185.674 20.2285 184.994 21.2012C184.314 22.1621 183.975 23.6562 183.975 25.6836ZM205.402 35H200.305V8H205.402V35ZM214.965 35H209.867V8H214.965V35Z" fill="white"/>
<rect x="10" y="10" width="28" height="28" fill="white"/>
<circle cx="16" cy="16" r="3" fill="#674198"/>
<circle cx="16" cy="24" r="3" fill="#674198"/>
<circle cx="16" cy="32" r="3" fill="#674198"/>
</svg>
