<svg width="239" height="47" viewBox="0 0 239 47" fill="none" xmlns="http://www.w3.org/2000/svg">
<path d="M57.5352 29.9551C57.5352 29.0762 57.2012 28.3965 56.5332 27.916C55.877 27.4238 54.7227 27.002 53.0703 26.6504C51.4297 26.2988 50.123 25.877 49.1504 25.3848C48.1895 24.8926 47.4746 24.3066 47.0059 23.627C46.5488 22.9473 46.3203 22.1387 46.3203 21.2012C46.3203 19.6426 46.9766 18.3242 48.2891 17.2461C49.6133 16.168 51.3008 15.6289 53.3516 15.6289C55.5078 15.6289 57.2539 16.1855 58.5898 17.2988C59.9375 18.4121 60.6113 19.8359 60.6113 21.5703H57.3418C57.3418 20.6797 56.9609 19.9121 56.1992 19.2676C55.4492 18.623 54.5 18.3008 53.3516 18.3008C52.168 18.3008 51.2422 18.5586 50.5742 19.0742C49.9062 19.5898 49.5723 20.2637 49.5723 21.0957C49.5723 21.8809 49.8828 22.4727 50.5039 22.8711C51.125 23.2695 52.2441 23.6504 53.8613 24.0137C55.4902 24.377 56.8086 24.8105 57.8164 25.3145C58.8242 25.8184 59.5684 26.4277 60.0488 27.1426C60.541 27.8457 60.7871 28.707 60.7871 29.7266C60.7871 31.4258 60.1074 32.791 58.748 33.8223C57.3887 34.8418 55.625 35.3516 53.457 35.3516C51.9336 35.3516 50.5859 35.082 49.4141 34.543C48.2422 34.0039 47.3223 33.2539 46.6543 32.293C45.998 31.3203 45.6699 30.2715 45.6699 29.1465H48.9219C48.9805 30.2363 49.4141 31.1035 50.2227 31.748C51.043 32.3809 52.1211 32.6973 53.457 32.6973C54.6875 32.6973 55.6719 32.4512 56.4102 31.959C57.1602 31.4551 57.5352 30.7871 57.5352 29.9551ZM69.4355 11.375V15.9805H72.9863V18.4941H69.4355V30.2891C69.4355 31.0508 69.5938 31.625 69.9102 32.0117C70.2266 32.3867 70.7656 32.5742 71.5273 32.5742C71.9023 32.5742 72.418 32.5039 73.0742 32.3633V35C72.2188 35.2344 71.3867 35.3516 70.5781 35.3516C69.125 35.3516 68.0293 34.9121 67.291 34.0332C66.5527 33.1543 66.1836 31.9062 66.1836 30.2891V18.4941H62.7207V15.9805H66.1836V11.375H69.4355ZM85.9941 18.8984C85.502 18.8164 84.9688 18.7754 84.3945 18.7754C82.2617 18.7754 80.8145 19.6836 80.0527 21.5V35H76.8008V15.9805H79.9648L80.0176 18.1777C81.084 16.4785 82.5957 15.6289 84.5527 15.6289C85.1855 15.6289 85.666 15.7109 85.9941 15.875V18.8984ZM96.541 35.3516C93.9629 35.3516 91.8652 34.5078 90.248 32.8203C88.6309 31.1211 87.8223 28.8535 87.8223 26.0176V25.4199C87.8223 23.5332 88.1797 21.8516 88.8945 20.375C89.6211 18.8867 90.6289 17.7266 91.918 16.8945C93.2188 16.0508 94.625 15.6289 96.1367 15.6289C98.6094 15.6289 100.531 16.4434 101.902 18.0723C103.273 19.7012 103.959 22.0332 103.959 25.0684V26.4219H91.0742C91.1211 28.2969 91.666 29.8145 92.709 30.9746C93.7637 32.123 95.0996 32.6973 96.7168 32.6973C97.8652 32.6973 98.8379 32.4629 99.6348 31.9941C100.432 31.5254 101.129 30.9043 101.727 30.1309L103.713 31.6777C102.119 34.127 99.7285 35.3516 96.541 35.3516ZM96.1367 18.3008C94.8242 18.3008 93.7227 18.7812 92.832 19.7422C91.9414 20.6914 91.3906 22.0273 91.1797 23.75H100.707V23.5039C100.613 21.8516 100.168 20.5742 99.3711 19.6719C98.5742 18.7578 97.4961 18.3008 96.1367 18.3008ZM119.48 35C119.293 34.625 119.141 33.957 119.023 32.9961C117.512 34.5664 115.707 35.3516 113.609 35.3516C111.734 35.3516 110.193 34.8242 108.986 33.7695C107.791 32.7031 107.193 31.3555 107.193 29.7266C107.193 27.7461 107.943 26.2109 109.443 25.1211C110.955 24.0195 113.076 23.4688 115.807 23.4688H118.971V21.9746C118.971 20.8379 118.631 19.9355 117.951 19.2676C117.271 18.5879 116.27 18.248 114.945 18.248C113.785 18.248 112.812 18.541 112.027 19.127C111.242 19.7129 110.85 20.4219 110.85 21.2539H107.58C107.58 20.3047 107.914 19.3906 108.582 18.5117C109.262 17.6211 110.176 16.918 111.324 16.4023C112.484 15.8867 113.756 15.6289 115.139 15.6289C117.33 15.6289 119.047 16.1797 120.289 17.2812C121.531 18.3711 122.176 19.877 122.223 21.7988V30.5527C122.223 32.2988 122.445 33.6875 122.891 34.7188V35H119.48ZM114.084 32.5215C115.104 32.5215 116.07 32.2578 116.984 31.7305C117.898 31.2031 118.561 30.5176 118.971 29.6738V25.7715H116.422C112.438 25.7715 110.445 26.9375 110.445 29.2695C110.445 30.2891 110.785 31.0859 111.465 31.6602C112.145 32.2344 113.018 32.5215 114.084 32.5215ZM130.379 15.9805L130.467 18.0898C131.861 16.4492 133.742 15.6289 136.109 15.6289C138.77 15.6289 140.58 16.6484 141.541 18.6875C142.174 17.7734 142.994 17.0352 144.002 16.4727C145.021 15.9102 146.223 15.6289 147.605 15.6289C151.777 15.6289 153.898 17.8379 153.969 22.2559V35H150.717V22.4492C150.717 21.0898 150.406 20.0762 149.785 19.4082C149.164 18.7285 148.121 18.3887 146.656 18.3887C145.449 18.3887 144.447 18.752 143.65 19.4785C142.854 20.1934 142.391 21.1602 142.262 22.3789V35H138.992V22.5371C138.992 19.7715 137.639 18.3887 134.932 18.3887C132.799 18.3887 131.34 19.2969 130.555 21.1133V35H127.303V15.9805H130.379ZM174.957 25.7012C174.957 28.5957 174.295 30.9277 172.971 32.6973C171.646 34.4668 169.854 35.3516 167.592 35.3516C165.283 35.3516 163.467 34.6191 162.143 33.1543V42.3125H158.891V15.9805H161.861L162.02 18.0898C163.344 16.4492 165.184 15.6289 167.539 15.6289C169.824 15.6289 171.629 16.4902 172.953 18.2129C174.289 19.9355 174.957 22.332 174.957 25.4023V25.7012ZM171.705 25.332C171.705 23.1875 171.248 21.4941 170.334 20.252C169.42 19.0098 168.166 18.3887 166.572 18.3887C164.604 18.3887 163.127 19.2617 162.143 21.0078V30.0957C163.115 31.8301 164.604 32.6973 166.607 32.6973C168.166 32.6973 169.402 32.082 170.316 30.8516C171.242 29.6094 171.705 27.7695 171.705 25.332ZM178.244 25.3145C178.244 23.4512 178.607 21.7754 179.334 20.2871C180.072 18.7988 181.092 17.6504 182.393 16.8418C183.705 16.0332 185.199 15.6289 186.875 15.6289C189.465 15.6289 191.557 16.5254 193.15 18.3184C194.756 20.1113 195.559 22.4961 195.559 25.4727V25.7012C195.559 27.5527 195.201 29.2168 194.486 30.6934C193.783 32.1582 192.77 33.3008 191.445 34.1211C190.133 34.9414 188.621 35.3516 186.91 35.3516C184.332 35.3516 182.24 34.4551 180.635 32.6621C179.041 30.8691 178.244 28.4961 178.244 25.543V25.3145ZM181.514 25.7012C181.514 27.8105 182 29.5039 182.973 30.7812C183.957 32.0586 185.27 32.6973 186.91 32.6973C188.562 32.6973 189.875 32.0527 190.848 30.7637C191.82 29.4629 192.307 27.6465 192.307 25.3145C192.307 23.2285 191.809 21.541 190.812 20.252C189.828 18.9512 188.516 18.3008 186.875 18.3008C185.27 18.3008 183.975 18.9395 182.99 20.2168C182.006 21.4941 181.514 23.3223 181.514 25.7012ZM203.17 35H199.918V8H203.17V35ZM211.924 35H208.672V8H211.924V35Z" fill="white"/>
<rect x="10" y="10" width="28" height="28" fill="white"/>
<circle cx="16" cy="16" r="3" fill="#674198"/>
<circle cx="16" cy="24" r="3" fill="#674198"/>
<circle cx="16" cy="32" r="3" fill="#674198"/>
</svg>
